<?xml version="1.0" encoding="UTF-8" standalone="no"?>
<svg width="173px" height="173px" viewBox="0 0 173 173" version="1.1" xmlns="http://www.w3.org/2000/svg" xmlns:xlink="http://www.w3.org/1999/xlink">
    <!-- Generator: Sketch 42 (36781) - http://www.bohemiancoding.com/sketch -->
    <title>Slice 1</title>
    <desc>Created with Sketch.</desc>
    <defs>
        <polygon id="path-1" points="30.3584677 73.3265719 25.6410684 79.4211734 20.9237754 73.3265719 20.9237754 27.4368753 0.778292972 27.4368753 25.6410684 0.274319824 50.2449269 27.4368753 30.3584677 27.4368753"></polygon>
        <polygon id="path-3" points="30.3584677 73.3265719 25.6410684 79.4211734 20.9237754 73.3265719 20.9237754 27.4368753 0.778292972 27.4368753 25.6410684 0.274319824 50.2449269 27.4368753 30.3584677 27.4368753"></polygon>
        <polygon id="path-5" points="30.3584677 73.3265719 25.6410684 79.4211734 20.9237754 73.3265719 20.9237754 27.4368753 0.778292972 27.4368753 25.6410684 0.274319824 50.2449269 27.4368753 30.3584677 27.4368753"></polygon>
        <polygon id="path-7" points="30.3584677 73.3265719 25.6410684 79.4211734 20.9237754 73.3265719 20.9237754 27.4368753 0.778292972 27.4368753 25.6410684 0.274319824 50.2449269 27.4368753 30.3584677 27.4368753"></polygon>
    </defs>
    <g id="Page-1" stroke="none" stroke-width="1" fill="none" fill-rule="evenodd">
        <g id="g3664" transform="translate(1.554153, 1.334411)">
            <g id="g12802" transform="translate(40.929865, 82.945316) rotate(-90.000000) translate(-40.929865, -82.945316) translate(10.615465, 42.525955)">
                <g id="g12804" transform="translate(0.297307, 0.885790)">
                    <g id="g12806" transform="translate(0.706587, -0.000044)" fill="#932279">
                        <polygon id="path12808" points="33.3184911 70.3737248 27.1848044 76.5435276 21.0511177 70.3737248 21.0511177 26.9483329 0.613668195 26.9483329 27.1848044 0.465248124 53.3082152 26.9483329 33.3185024 26.9483329 33.3184911 70.3737248"></polygon>
                    </g>
                    <g id="g12812-Clipped" transform="translate(8.509305, 0.000000)">
                        <mask id="mask-2" fill="white">
                            <use xlink:href="#path-1"></use>
                        </mask>
                        <g id="path4433"></g>
                    </g>
                </g>
            </g>
            <g id="g12768" transform="translate(57.111575, 0.469950)">
                <g id="g12770" transform="translate(0.297307, 0.885790)">
                    <g id="g12772" transform="translate(0.706587, -0.000044)" fill="#EFA724">
                        <polygon id="path12774" points="33.3184911 70.3737248 27.1848044 76.5435276 21.0511177 70.3737248 21.0511177 26.9483329 0.613668195 26.9483329 27.1848044 0.465248124 53.3082152 26.9483329 33.3185024 26.9483329 33.3184911 70.3737248"></polygon>
                    </g>
                    <g id="g12778-Clipped" transform="translate(8.509305, 0.000000)">
                        <mask id="mask-4" fill="white">
                            <use xlink:href="#path-3"></use>
                        </mask>
                        <g id="path4433"></g>
                    </g>
                </g>
            </g>
            <g id="g12780" transform="translate(129.127857, 87.151068) rotate(90.000000) translate(-129.127857, -87.151068) translate(99.345288, 47.263540)">
                <g id="g12782" transform="translate(0.706587, -0.000044)" fill="#262577">
                    <polygon id="path12784" points="33.3184911 70.3737248 27.1848044 76.5435276 21.0511177 70.3737248 21.0511177 26.9483329 0.613668195 26.9483329 27.1848044 0.465248124 53.3082152 26.9483329 33.3185024 26.9483329 33.3184911 70.3737248"></polygon>
                </g>
                <g id="g12788-Clipped" transform="translate(8.509305, 0.000000)">
                    <mask id="mask-6" fill="white">
                        <use xlink:href="#path-5"></use>
                    </mask>
                    <g id="path4433"></g>
                </g>
            </g>
            <g id="g12790" transform="translate(82.985543, 129.441622) rotate(-180.000000) translate(-82.985543, -129.441622) translate(52.671143, 89.022261)">
                <g id="g12792" transform="translate(0.297307, 0.885790)">
                    <g id="g12794" transform="translate(0.706587, -0.000044)" fill="#9CCD2A">
                        <polygon id="path12796" points="33.3184911 70.3737248 27.1848044 76.5435276 21.0511177 70.3737248 21.0511177 26.9483329 0.613668195 26.9483329 27.1848044 0.465248124 53.3082152 26.9483329 33.3185024 26.9483329 33.3184911 70.3737248"></polygon>
                    </g>
                    <g id="g12800-Clipped" transform="translate(8.509305, 0.000000)">
                        <mask id="mask-8" fill="white">
                            <use xlink:href="#path-7"></use>
                        </mask>
                        <g id="path4433"></g>
                    </g>
                </g>
            </g>
            <g id="g12742" transform="translate(25.740840, 25.907960)" stroke-width="3.76902967" stroke="#FFFFFF" fill-rule="nonzero">
                <polygon id="rect12744" fill="#9CCD2A" points="1.04703811 0.839552684 53.8115915 0.839552684 53.8115915 53.6043699 1.04703811 53.6043699"></polygon>
                <polygon id="rect12746" fill="#932279" points="65.1182671 0.839552684 117.882821 0.839552684 117.882821 53.6043699 65.1182671 53.6043699"></polygon>
                <polygon id="rect12748" fill="#EFA724" points="65.1182671 64.9109417 117.882821 64.9109417 117.882821 117.675759 65.1182671 117.675759"></polygon>
                <polygon id="rect12750" fill="#262577" points="1.04703811 64.9109417 53.8115915 64.9109417 53.8115915 117.675759 1.04703811 117.675759"></polygon>
            </g>
            <polygon id="rect12760" stroke="#FFFFFF" stroke-width="3.76902977" transform="translate(39.900456, 85.165663) rotate(-45.000000) translate(-39.900456, -85.165663) " points="13.5181841 58.7832806 66.2827282 58.7832806 66.2827282 111.548046 13.5181841 111.548046"></polygon>
            <polygon id="rect12762" stroke="#FFFFFF" stroke-width="3.7687754" transform="translate(85.205707, 39.860232) rotate(-45.000000) translate(-85.205707, -39.860232) " points="58.8234293 13.4778491 111.587984 13.4778491 111.587984 66.2426146 58.8234293 66.2426146"></polygon>
            <polygon id="rect12764" stroke="#FFFFFF" stroke-width="3.76902967" points="93.2006945 85.1656156 130.510869 47.8552476 167.821043 85.1656156 130.510869 122.475877"></polygon>
            <polygon id="rect12766" stroke="#FFFFFF" stroke-width="3.76902977" transform="translate(85.205613, 130.471001) rotate(-45.000000) translate(-85.205613, -130.471001) " points="58.8233406 104.088618 111.587885 104.088618 111.587885 156.853383 58.8233406 156.853383"></polygon>
        </g>
    </g>
</svg>