<?xml version="1.0" encoding="UTF-8" standalone="no"?>
<svg width="469px" height="468px" viewBox="0 0 469 468" version="1.1" xmlns="http://www.w3.org/2000/svg" xmlns:xlink="http://www.w3.org/1999/xlink">
    <!-- Generator: Sketch 43.2 (39069) - http://www.bohemiancoding.com/sketch -->
    <title>Combined Shape</title>
    <desc>Created with Sketch.</desc>
    <defs></defs>
    <g id="Page-1" stroke="none" stroke-width="1" fill="none" fill-rule="evenodd">
        <path d="M338.093063,156.98647 L337.858515,156.718351 C337.858515,156.718351 244.2542,250.748759 240.315566,254.646826 C237.983383,256.954988 235.676529,257.583884 232.912436,255.582363 C222.453178,243.230643 132.968435,155.718351 132.968435,155.718351 L132.733887,155.98647 C128.088939,151.652262 121.854204,149 115,149 C100.640597,149 89,160.640597 89,175 C89,183.712204 93.2850761,191.423576 99.8625972,196.141482 L208.346126,307.223802 L207.652388,467.479883 C192.041639,465.700602 176.896264,462.38849 162.370473,457.697762 C162.701424,431.614379 163.770769,331.499834 160.76002,326.460358 C157.296613,320.663208 68.9684353,232.718351 68.9684353,232.718351 L68.7338873,232.98647 C64.0889389,228.652262 57.854204,226 51,226 C36.6405965,226 25,237.640597 25,252 C25,260.72027 29.2930141,268.437853 35.8808716,273.154578 L108.714198,347.394134 L108.258367,432.15362 C43.1545539,390.485229 0,317.532258 0,234.5 C0,104.989226 104.989226,0 234.5,0 C364.010774,0 469,104.989226 469,234.5 C469,316.755807 426.648766,389.119953 362.562253,430.976483 L362.112752,347.394134 L434.946078,273.154578 C441.533936,268.437853 445.82695,260.72027 445.82695,252 C445.82695,237.640597 434.186354,226 419.82695,226 C412.972746,226 406.738011,228.652262 402.093063,232.98647 L401.858515,232.718351 C401.858515,232.718351 313.530338,320.663208 310.06693,326.460358 C306.650594,332.178716 308.487679,453.768195 308.538247,457.072279 C293.756155,461.987101 278.320501,465.47048 262.395654,467.358045 L263.427486,307.382825 L370.968919,197.138206 C377.543857,192.420006 381.82695,184.710188 381.82695,176 C381.82695,161.640597 370.186354,150 355.82695,150 C348.972746,150 342.738011,152.652262 338.093063,156.98647 Z M235,184 C257.643675,184 276,165.643675 276,143 C276,120.356325 257.643675,102 235,102 C212.356325,102 194,120.356325 194,143 C194,165.643675 212.356325,184 235,184 Z" id="Combined-Shape" fill="#686868"></path>
    </g>
</svg>