<?xml version="1.0" encoding="UTF-8" standalone="no"?>
<!-- Created with Inkscape (http://www.inkscape.org/) -->

<svg
   xmlns:dc="http://purl.org/dc/elements/1.1/"
   xmlns:cc="http://creativecommons.org/ns#"
   xmlns:rdf="http://www.w3.org/1999/02/22-rdf-syntax-ns#"
   xmlns:svg="http://www.w3.org/2000/svg"
   xmlns="http://www.w3.org/2000/svg"
   xmlns:sodipodi="http://sodipodi.sourceforge.net/DTD/sodipodi-0.dtd"
   xmlns:inkscape="http://www.inkscape.org/namespaces/inkscape"
   width="677.01703"
   height="298.48889"
   id="svg3002"
   version="1.1"
   inkscape:version="0.48.3.1 r9886"
   sodipodi:docname="New document 2">
  <defs
     id="defs3004" />
  <sodipodi:namedview
     id="base"
     pagecolor="#ffffff"
     bordercolor="#666666"
     borderopacity="1.0"
     inkscape:pageopacity="0.0"
     inkscape:pageshadow="2"
     inkscape:zoom="0.35"
     inkscape:cx="453.5085"
     inkscape:cy="57.815879"
     inkscape:document-units="px"
     inkscape:current-layer="layer1"
     showgrid="false"
     fit-margin-top="0"
     fit-margin-left="0"
     fit-margin-right="0"
     fit-margin-bottom="0"
     inkscape:window-width="1438"
     inkscape:window-height="898"
     inkscape:window-x="0"
     inkscape:window-y="0"
     inkscape:window-maximized="0" />
  <metadata
     id="metadata3007">
    <rdf:RDF>
      <cc:Work
         rdf:about="">
        <dc:format>image/svg+xml</dc:format>
        <dc:type
           rdf:resource="http://purl.org/dc/dcmitype/StillImage" />
        <dc:title></dc:title>
      </cc:Work>
    </rdf:RDF>
  </metadata>
  <g
     inkscape:label="Layer 1"
     inkscape:groupmode="layer"
     id="layer1"
     transform="translate(78.508504,-291.68916)">
    <g
       transform="matrix(2.1789862,0,0,2.1329101,-246.16678,-793.7116)"
       style="stroke-width:0.40052065;stroke-miterlimit:10"
       id="g6">
      <g
         transform="matrix(0.1,0,0,-0.1,0,840)"
         style="stroke-width:0.40052065"
         id="g8">
        <path
           inkscape:connector-curvature="0"
           d="m 834,3091.06 c 0,0 -12.27,28.54 -46.87,9.44 -28.77,-15.96 -13.809,-45.43 -13.809,-45.43 l 540.689,-1143.34 131.16,0 -611.179,1179.33"
           style="fill:#777777;stroke:none"
           id="path10" />
        <path
           inkscape:connector-curvature="0"
           d="m 3876.46,3169.4 c -512.64,246.04 -976.45,128.54 -1495.2,-26.7 -522.23,-156.2 -986.75,-240.74 -1508.58,-27.83 56.85,-101.58 85.31,-152.36 142.19,-253.86 52.22,-93.37 104.51,-186.73 156.75,-280.06 56.87,-101.56 85.3,-152.3 142.18,-253.84 415.48,-117.43 759.56,34.86 1128.77,219.44 443.36,221.52 843.83,420.81 1350.39,305.34 -428.09,214.37 -816.17,161.24 -1263.79,39.8 438.24,223.1 850.84,396.62 1347.29,277.71"
           style="fill:#f26711;stroke:none"
           id="path14" />
      </g>
    </g>
  </g>
</svg>
