<?xml version="1.0" encoding="UTF-8" standalone="no"?>
<svg width="109px" height="97px" viewBox="0 0 109 97" version="1.1" xmlns="http://www.w3.org/2000/svg" xmlns:xlink="http://www.w3.org/1999/xlink">
    <!-- Generator: Sketch 42 (36781) - http://www.bohemiancoding.com/sketch -->
    <title>Slice 1</title>
    <desc>Created with Sketch.</desc>
    <defs></defs>
    <g id="Page-1" stroke="none" stroke-width="1" fill="none" fill-rule="evenodd">
        <path d="M99.83,83.928 C97.75,83.448 95.544,83.148 93.311,83.148 C89.494,83.148 86.021,83.813 83.458,84.875 C83.18,85.017 82.978,85.311 82.978,85.647 C82.978,85.768 83.01,85.894 83.057,85.996 C83.359,86.875 82.859,87.83 80.38,88.374 C76.706,89.18 74.383,92.974 73.057,94.234 C71.497,95.716 67.096,96.623 67.757,95.74 C68.274,95.052 70.259,92.898 71.464,90.573 C72.542,88.493 73.502,87.904 74.826,85.918 C75.211,85.337 76.714,83.293 77.152,81.677 C77.646,80.095 77.48,78.115 77.67,77.299 C77.936,76.125 79.05,73.571 79.129,72.128 C79.18,71.318 75.729,73.294 74.092,73.294 C72.454,73.294 70.858,72.315 69.396,72.242 C67.587,72.155 66.422,73.641 64.782,73.381 C63.849,73.229 63.06,72.408 61.426,72.346 C59.099,72.256 56.253,73.641 50.911,73.468 C45.654,73.294 40.803,66.829 40.138,65.798 C39.362,64.59 38.412,64.59 37.381,65.537 C36.346,66.485 35.072,65.744 34.709,65.113 C34.02,63.903 32.173,60.373 29.322,59.64 C25.376,58.616 23.379,61.818 23.634,64.376 C23.899,66.965 25.575,67.69 26.348,69.07 C27.125,70.446 27.523,71.335 28.98,71.95 C30.015,72.379 30.401,73.021 30.093,73.87 C29.82,74.608 28.746,74.774 28.036,74.811 C26.531,74.883 25.48,74.477 24.711,73.98 C23.818,73.414 23.091,72.619 22.31,71.278 C21.409,69.792 19.983,69.147 18.33,69.147 C17.54,69.147 16.799,69.358 16.146,69.698 C13.546,71.045 10.458,71.848 7.13,71.848 L3.378,71.848 C1.555,66.43 0.563,60.628 0.563,54.594 C0.563,24.791 24.722,0.632 54.527,0.632 C84.33,0.632 108.488,24.791 108.488,54.594 C108.486,65.41 105.307,75.48 99.83,83.928" id="Fill-76" fill="#0B0B09"></path>
        <path d="M66.409,78.979 C66.688,79.249 67.167,80.155 66.582,81.316 C66.256,81.924 65.902,82.357 65.268,82.862 C64.51,83.472 63.027,84.169 60.99,82.883 C59.898,82.186 59.833,81.957 58.323,82.15 C57.242,82.291 56.815,81.204 57.201,80.294 C57.591,79.395 59.182,78.664 61.167,79.818 C62.058,80.344 63.447,81.452 64.663,80.469 C65.171,80.064 65.471,79.798 66.171,78.987 C66.206,78.953 66.249,78.933 66.299,78.933 C66.341,78.933 66.382,78.951 66.409,78.979" id="Fill-77" fill="#0B0B09"></path>
        <path d="M84.979,40.234 C84.445,42.031 83.688,44.318 80.315,46.053 C79.822,46.303 79.636,45.894 79.859,45.505 C81.139,43.338 81.361,42.793 81.734,41.938 C82.252,40.688 82.523,38.911 81.491,35.196 C79.464,27.894 75.228,18.134 72.151,14.963 C69.18,11.909 63.802,11.049 58.936,12.296 C57.143,12.754 53.641,14.578 47.142,13.114 C35.891,10.582 34.229,16.213 33.582,18.665 C32.937,21.12 31.385,28.094 31.385,28.094 C30.869,30.932 30.192,35.868 47.657,39.198 C55.794,40.747 56.207,42.854 56.566,44.361 C57.209,47.074 58.243,48.625 59.407,49.4 C60.569,50.177 59.407,50.816 58.115,50.951 C54.651,51.311 41.845,47.636 34.27,43.332 C28.069,39.543 27.964,36.132 29.388,33.238 C20.022,32.229 12.997,34.117 11.722,38.551 C9.534,46.154 28.446,59.15 49.984,65.668 C72.581,72.512 95.823,67.738 98.405,53.526 C99.58,47.078 94.144,42.304 84.979,40.234" id="Fill-78" fill="#CE332B"></path>
    </g>
</svg>