<?xml version="1.0" encoding="UTF-8" standalone="no"?>
<svg width="80px" height="18px" viewBox="0 0 80 18" version="1.1" xmlns="http://www.w3.org/2000/svg" xmlns:xlink="http://www.w3.org/1999/xlink">
    <!-- Generator: Sketch 43.2 (39069) - http://www.bohemiancoding.com/sketch -->
    <title>logo</title>
    <desc>Created with Sketch.</desc>
    <defs></defs>
    <g id="Page-1" stroke="none" stroke-width="1" fill="none" fill-rule="evenodd">
        <g id="logo" fill-rule="nonzero" fill="#FFFFFF">
            <path d="M18.0528273,9.20039392 C18.0476331,7.64262227 17.9426039,6.68808826 17.7359287,6.16256047 C17.5607498,5.68666407 17.2202413,5.28736556 16.7748429,5.03553961 C16.2666509,4.78298547 15.7018998,4.66138424 15.1332045,4.68206489 C14.0006819,4.68206489 13.0915467,5.26606662 11.6213452,6.51603517 L11.6213452,8.21168925 L11.6213452,17.063926 L9.0238161,17.063926 L9.0238161,9.20039392 C9.0238161,7.64305603 8.91818323,6.61849164 8.70691752,6.1267007 C8.52747985,5.66553507 8.19152052,5.27993768 7.75622188,5.03553961 C7.25616986,4.78666438 6.70031164,4.66681621 6.14055881,4.68718771 C4.96128058,4.68718771 4.06253551,5.3531546 2.5975291,6.56214059 L2.5975291,17.063926 L0,17.063926 L0,2.6019471 L1.56272956,2.6019471 L2.07802328,4.48739765 C3.40219278,3.31062516 5.11656562,2.65117083 6.89903732,2.6019471 C8.80562364,2.63293607 10.1978993,3.14521828 10.8680618,4.68206489 C12.6655519,3.14521828 14.2708249,2.63293607 15.891683,2.6019471 C19.3100313,2.63293607 20.6451613,4.39518685 20.6451613,7.92481124 L20.6451613,17.063926 L18.0476322,17.063926 L18.0528273,9.20039392 Z M59.8709677,5.1224636 L59.8709677,6.21744208 L63.483871,6.21744208 L63.483871,5.1224636 L59.8709677,5.1224636 Z M24.2580645,17.0329371 L24.2580645,2.57994292 L26.8387096,2.57994292 L26.8387097,17.0329371 L24.2580645,17.0329371 Z M45.9453326,0 L47.4943926,0 L48.3199999,2.50597845 L51.6102669,2.50340526 L51.6205894,4.63807072 L48.3199999,4.64064392 L48.3199999,13.4300847 C48.3199999,14.9826404 50.2631706,14.8522216 51.6205899,14.8522216 L51.6205899,16.9667997 C51.1617602,17.0513589 47.7549003,17.3323256 46.5527678,15.7800773 C46.1378478,15.2443136 45.9354839,14.6343764 45.9354839,13.4300847 L45.9354839,10.8593353 L45.9453326,0 Z M30.453938,14.0566056 C30.453938,14.0566056 33.9842606,14.9016845 35.5945832,14.9016845 C37.2049058,14.9016845 39.5274864,15.0772943 39.5274864,12.4947979 C39.5274864,8.8793029 30.2836154,13.6930762 30.453938,6.49824121 C30.5365187,3.05835599 33.8758735,2.58317665 35.9661961,2.58317665 C37.8149411,2.55473728 39.6618043,2.71394449 41.4784541,3.05835599 L41.4784541,5.43425268 C41.4784541,5.43425268 38.7120025,4.61301883 37.1274864,4.61301883 C35.5429703,4.61301883 32.853938,4.7059887 32.853938,6.5034062 C32.853938,8.3008237 33.5352283,8.56940333 36.2758735,8.56940333 C39.0165187,8.56940333 42.097809,8.91029286 42.097809,12.7013976 C42.097809,16.3168926 39.0010348,16.8333919 36.4461961,16.9831766 C34.4023251,17.0916415 32.1674864,16.639102 30.453938,16.2827175 L30.453938,14.0566056 Z M63.483871,17.0633117 L59.8709677,17.0633117 L59.8709677,2.60133272 L63.483871,2.60133272 L63.483871,17.0633117 Z M65.5483871,9.81865353 C65.5483871,7.56846222 66.1780645,5.80781637 67.4374194,4.53671592 C68.7019355,3.26905089 70.4689781,2.6019471 72.6967742,2.6019471 C74.9728532,2.6019471 76.7122581,3.26905089 77.9664516,4.53671592 C79.2206452,5.80438098 79.8503226,7.56674455 79.8503226,9.82380665 C79.8503226,12.0808688 79.2206452,13.827773 77.9664516,15.095438 C76.7122581,16.3631031 74.9716877,17.0639259 72.6967742,17.063926 C70.4308289,17.0639259 68.6709677,16.3527969 67.4167742,15.090285 C66.1746235,13.8260553 65.5483871,12.0688448 65.5483871,9.81865353 Z M72.7483871,13.7686616 C74.7767742,13.7686616 75.9896774,12.6943431 75.9896774,9.59534739 C75.9896774,6.4963517 74.4412903,5.76292271 72.7483871,5.76292271 C71.0554839,5.76292271 69.6412903,6.43437178 69.6412903,9.59534739 C69.6516129,12.6943431 70.72,13.7686616 72.7483871,13.7686616 Z M55.5716129,17.3428366 C56.6576542,17.3428366 57.5380645,16.4617947 57.5380645,15.3749744 C57.5380645,14.288154 56.6576542,13.4071121 55.5716129,13.4071121 C54.4855716,13.4071121 53.6051613,14.288154 53.6051613,15.3749744 C53.6163835,16.4477084 54.4996217,17.3344482 55.5716129,17.3428366 L55.5716129,17.3428366 Z" id="Shape"></path>
        </g>
    </g>
</svg>